<?xml version="1.0" standalone="no"?>
<!DOCTYPE svg PUBLIC "-//W3C//DTD SVG 20010904//EN"
 "http://www.w3.org/TR/2001/REC-SVG-20010904/DTD/svg10.dtd">
<svg version="1.0" xmlns="http://www.w3.org/2000/svg"
 width="75.000000pt" height="76.000000pt" viewBox="0 0 75.000000 76.000000"
 preserveAspectRatio="xMidYMid meet">
<metadata>
Created by potrace 1.10, written by Peter Selinger 2001-2011
</metadata>
<g transform="translate(0.000000,76.000000) scale(0.100000,-0.100000)"
fill="#fff5fc" stroke="none">
<path d="M262 692 c-222 -80 -295 -364 -137 -539 66 -74 132 -106 230 -111
145 -7 253 56 317 186 29 59 33 76 33 147 -1 133 -61 234 -176 295 -81 43
-184 51 -267 22z m245 -27 c71 -32 136 -101 163 -173 46 -121 12 -275 -79
-354 -98 -87 -242 -109 -353 -55 -148 72 -217 229 -169 385 57 187 258 278
438 197z"/>
<path d="M305 548 c-14 -29 -25 -62 -25 -73 0 -11 -7 -29 -15 -39 -20 -27 -19
-72 3 -94 9 -11 27 -38 39 -60 l21 -42 -46 0 c-60 0 -94 -9 -89 -24 8 -25 88
-58 150 -62 l62 -4 -66 14 c-37 8 -82 22 -100 32 l-34 18 25 7 c39 11 108 10
116 -2 10 -17 96 -69 113 -69 24 0 -26 47 -76 71 -30 14 -50 33 -63 59 l-19
38 22 6 c12 3 32 6 44 6 32 0 60 35 73 91 11 45 15 50 52 60 22 5 42 8 45 6 7
-8 -24 -75 -53 -113 -31 -40 -71 -64 -109 -64 -14 0 -25 -5 -25 -11 0 -18 66
-4 101 22 48 34 124 167 106 186 -3 3 -28 -2 -56 -10 l-50 -14 6 48 c3 27 2
49 -3 49 -5 0 -24 -9 -42 -20 -43 -26 -49 -25 -57 10 -9 43 -23 37 -50 -22z
m25 -45 c-15 -13 -30 -23 -33 -23 -3 0 4 23 16 52 l21 52 12 -29 c10 -26 9
-31 -16 -52z m112 20 c-6 -62 -56 -87 -64 -33 -4 25 1 33 26 49 42 26 43 26
38 -16z m-72 -52 c0 -15 -9 -36 -20 -46 -12 -11 -20 -31 -20 -50 0 -35 -24
-55 -34 -29 -3 9 -6 37 -6 64 0 43 4 52 32 74 37 29 48 26 48 -13z m50 -63
c-11 -28 -25 -55 -32 -60 -38 -24 -63 24 -33 64 l17 23 -5 -25 c-2 -14 -8 -34
-12 -44 -6 -13 -5 -17 3 -13 6 4 16 24 22 45 12 35 34 62 52 62 4 0 -1 -23
-12 -52z m-140 -20 c-1 -35 -3 -40 -11 -25 -10 17 -5 67 6 67 3 0 5 -19 5 -42z
m146 -209 c3 -6 -5 -3 -20 6 -14 10 -26 19 -26 22 0 7 39 -17 46 -28z"/>
</g>
</svg>
